<mxfile host="www.draw.io" modified="2019-11-03T19:19:49.242Z" agent="Mozilla/5.0 (Windows NT 10.0; Win64; x64) AppleWebKit/537.36 (KHTML, like Gecko) Chrome/78.0.3904.70 Safari/537.36" etag="FtLVuKL2RO1ka57VCxuj" version="12.1.9" type="github" pages="1">
  <diagram id="Dpm7jYrs9NNJjVAeMyxa" name="Page-1">
    <mxGraphModel dx="2554" dy="1610" grid="1" gridSize="10" guides="1" tooltips="1" connect="1" arrows="1" fold="1" page="1" pageScale="1" pageWidth="850" pageHeight="1100" math="0" shadow="0">
      <root>
        <mxCell id="0"/>
        <mxCell id="1" parent="0"/>
        <mxCell id="1jjMkqjiKTc8N1ppwOgv-1" value="" style="rounded=0;whiteSpace=wrap;html=1;" vertex="1" parent="1">
          <mxGeometry x="-860" y="-1100" width="1710" height="1100" as="geometry"/>
        </mxCell>
        <mxCell id="1jjMkqjiKTc8N1ppwOgv-2" value="Actor" style="shape=umlActor;verticalLabelPosition=bottom;labelBackgroundColor=#ffffff;verticalAlign=top;html=1;outlineConnect=0;" vertex="1" parent="1">
          <mxGeometry x="-860" y="20" width="30" height="60" as="geometry"/>
        </mxCell>
        <mxCell id="1jjMkqjiKTc8N1ppwOgv-3" value="Actor" style="shape=umlActor;verticalLabelPosition=bottom;labelBackgroundColor=#ffffff;verticalAlign=top;html=1;outlineConnect=0;" vertex="1" parent="1">
          <mxGeometry x="-860" y="120" width="30" height="60" as="geometry"/>
        </mxCell>
        <mxCell id="1jjMkqjiKTc8N1ppwOgv-4" value="Actor" style="shape=umlActor;verticalLabelPosition=bottom;labelBackgroundColor=#ffffff;verticalAlign=top;html=1;outlineConnect=0;" vertex="1" parent="1">
          <mxGeometry x="-860" y="220" width="30" height="60" as="geometry"/>
        </mxCell>
        <mxCell id="1jjMkqjiKTc8N1ppwOgv-5" value="Actor" style="shape=umlActor;verticalLabelPosition=bottom;labelBackgroundColor=#ffffff;verticalAlign=top;html=1;outlineConnect=0;" vertex="1" parent="1">
          <mxGeometry x="-860" y="320" width="30" height="60" as="geometry"/>
        </mxCell>
        <mxCell id="1jjMkqjiKTc8N1ppwOgv-6" value="Actor" style="shape=umlActor;verticalLabelPosition=bottom;labelBackgroundColor=#ffffff;verticalAlign=top;html=1;outlineConnect=0;" vertex="1" parent="1">
          <mxGeometry x="-860" y="420" width="30" height="60" as="geometry"/>
        </mxCell>
        <mxCell id="1jjMkqjiKTc8N1ppwOgv-7" value="Actor" style="shape=umlActor;verticalLabelPosition=bottom;labelBackgroundColor=#ffffff;verticalAlign=top;html=1;outlineConnect=0;" vertex="1" parent="1">
          <mxGeometry x="-860" y="520" width="30" height="60" as="geometry"/>
        </mxCell>
        <mxCell id="1jjMkqjiKTc8N1ppwOgv-8" value="Actor" style="shape=umlActor;verticalLabelPosition=bottom;labelBackgroundColor=#ffffff;verticalAlign=top;html=1;outlineConnect=0;" vertex="1" parent="1">
          <mxGeometry x="-860" y="620" width="30" height="60" as="geometry"/>
        </mxCell>
        <mxCell id="1jjMkqjiKTc8N1ppwOgv-9" value="Actor" style="shape=umlActor;verticalLabelPosition=bottom;labelBackgroundColor=#ffffff;verticalAlign=top;html=1;outlineConnect=0;" vertex="1" parent="1">
          <mxGeometry x="-860" y="720" width="30" height="60" as="geometry"/>
        </mxCell>
        <mxCell id="1jjMkqjiKTc8N1ppwOgv-10" value="Actor" style="shape=umlActor;verticalLabelPosition=bottom;labelBackgroundColor=#ffffff;verticalAlign=top;html=1;outlineConnect=0;" vertex="1" parent="1">
          <mxGeometry x="-860" y="820" width="30" height="60" as="geometry"/>
        </mxCell>
        <mxCell id="1jjMkqjiKTc8N1ppwOgv-11" value="Actor" style="shape=umlActor;verticalLabelPosition=bottom;labelBackgroundColor=#ffffff;verticalAlign=top;html=1;outlineConnect=0;" vertex="1" parent="1">
          <mxGeometry x="-860" y="920" width="30" height="60" as="geometry"/>
        </mxCell>
        <mxCell id="1jjMkqjiKTc8N1ppwOgv-12" value="" style="shape=card;whiteSpace=wrap;html=1;" vertex="1" parent="1">
          <mxGeometry x="-860" y="1020" width="80" height="100" as="geometry"/>
        </mxCell>
        <mxCell id="1jjMkqjiKTc8N1ppwOgv-13" value="" style="triangle;whiteSpace=wrap;html=1;" vertex="1" parent="1">
          <mxGeometry x="-860" y="1140" width="60" height="80" as="geometry"/>
        </mxCell>
        <mxCell id="1jjMkqjiKTc8N1ppwOgv-14" value="" style="shape=internalStorage;whiteSpace=wrap;html=1;backgroundOutline=1;" vertex="1" parent="1">
          <mxGeometry x="-860" y="1240" width="80" height="80" as="geometry"/>
        </mxCell>
      </root>
    </mxGraphModel>
  </diagram>
</mxfile>
